<svg xmlns="http://www.w3.org/2000/svg" width="600" height="600" viewBox="0 0 600 600">
  <rect width="600" height="600" fill="#FCE7F3"/>
  <g transform="translate(0, -50)">
    <path d="M299.7,192.3c-2.8-15.3-11.8-29.3-24.8-38.3c-14.7-10.3-32.6-11.7-48.7-4.1c-15.4,7.3-26.6,22-29.3,37.6
      c-3.1,18.1,3.5,36.5,16.5,47.9c12.2,10.7,28.8,14.6,44.9,11.3c17.2-3.5,30.9-16.1,36.2-31.5C301.6,209.6,302.2,200.8,299.7,192.3z
      M261.6,238.9c-10.7,2.2-21.1-2-27.8-10.1c-7.2-8.7-9-20.5-4.8-31.2c2.4-10.9,9.8-20.2,20.1-24c11.1-4,23.3-1.6,32,6.9
      c8.4,8.2,11.2,20,7.6,30.8C284.1,222.1,273.1,236.5,261.6,238.9z" fill="#E78DAB"/>
    <text x="50%" y="350" text-anchor="middle" font-family="serif" font-size="60" fill="#D66C93" letter-spacing="2">CALLMIND</text>
    <text x="50%" y="410" text-anchor="middle" font-family="sans-serif" font-size="20" fill="#D66C93" letter-spacing="4">PSYCHOLOGICAL COUNSELING</text>
  </g>
</svg> 